<?xml version="1.0" encoding="UTF-8"?>
<svg version="1.1" viewBox="0 0 1396 1068" width="349" height="267" xmlns="http://www.w3.org/2000/svg">
<path transform="translate(0)" d="m0 0h1396v1068h-1396z" fill="#242424"/>
<path transform="translate(694,228)" d="m0 0 8 1 5 4 5 10 2 7 17 10 18 11 25 14 23 13 19 12 9 6 7-6h9l8 7 2 5-1 8-5 6-6 2 1 31 1 99 7 7-1 2-9-8-4-5-2-8v-108l-2-10-2-3-4 2-11 6-39 23-25 15-26 15-8 5-1 11-7 8-4 3v130l16-7 24-14 27-15 35-20 2 1 2 2v3l4-1-4 4-32 19-24 14-26 15-17 10-5 4-2 2v-8h3l1-2 7-3 19-12 24-13 8-5 11-6 5-3 6-4 1-3-18 10-22 12-17 10-24 13-6 3-2-3v-2l-1-3-4 4 5 4-7 1-16-8-14-8-17-10-19-11-13-8h-4l20 12 21 12 12 8 11 6 10 7v2l4 1 3-1v11l5 5v-1l9-2 5-6 1-3 3-1 1 5-7 8-5 3h-11l-7-5-3-6 1-9-6-2-18-10-20-12-26-15-17-10-14-8-9-6-3-1-4 3h-11l-9-6-3-7v-6l4-6 5-4h2l1-128-1-4-6-4-4-6v-8l3-5 8-6h7l7 4 4-1 12-7 15-9 24-14 23-13 25-15 9-4h2v-8l3-8 5-5z" fill="#242424"/>
<path transform="translate(695,233)" d="m0 0 5 1 5 5 2 4v7l18 13 16 10 25 14 34 20 17 11 6 5-1 4-16 10-23 13-22 12-24 14-19 11-9 5-9-3h-7l-6 3-6-2-26-15-23-13-18-10-21-12-17-10-6-4 1-4 14-10 21-12 15-9 23-13 26-15 14-8 4-4-1-2 1-9 4-6z" fill="#242424"/>
<path transform="translate(694,228)" d="m0 0 8 1 5 4 5 10 2 7 17 10 18 11 25 14 23 13 19 12 9 6 7-6h9l8 7 2 5-1 8-5 6-6 2 1 31 1 99 7 7-1 2-9-8-4-5-2-8v-108l-2-10-2-3-4 2-11 6-39 23-25 15-26 15-8 5-1 11-7 8-4 3v130l16-7 24-14 27-15 35-20 2 1 2 2v3l4-1-4 4-32 19-24 14-26 15-17 10-5 4-2 2v-8h3l1-2 7-3 19-12 24-13 8-5 11-6 5-3 6-4 1-3-18 10-22 12-17 10-24 13-6 3-2-3v-2l-1-3-4 4 5 4-7 1-16-8-14-8-17-10-19-11-13-8h-4l20 12 21 12 12 8 11 6 10 7v2l4 1 3-1v11l5 5v-1l9-2 5-6 1-3 3-1 1 5-7 8-5 3h-11l-7-5-3-6 1-9-6-2-18-10-20-12-26-15-17-10-14-8-9-6-3-1-4 3h-11l-9-6-3-7v-6l4-6 5-4h2l1-128-1-4-6-4-4-6v-8l3-5 8-6h7l7 4 4-1 12-7 15-9 24-14 23-13 25-15 9-4h2v-8l3-8 5-5zm1 5-5 3-3 7v6l1 3-11 7-23 13-21 12-26 15-15 9-16 10-6 5v3l18 11 69 39 19 11 9 5 5-2 3-1h7l10 3 15-9 24-14 25-14 22-12 25-15 2-2-1-4-12-9-22-13-24-14-25-14-14-9-18-13v-7l-5-8-4-2zm-131 102-1 2-1 28-1 92-2 6-1 2h2l-2 4v5l-4 2-3-1-2 1 1 5-2 2 1 7 3 5 17 1-1-4-4-1 1-2 10 3 23 11 24 14 23 13 26 15 19 9h1l1-13v-117l-4-5-5-5-2-3-1-11-15-8-25-15-26-15-21-12-23-13z" fill="#A4A4A4"/>
<path transform="translate(593,386)" d="m0 0h8l6 3 5 6 1 2v10l-4 6-6 5-6 2h-4l-3 9-15 31-4 10v5l3 4 13 3 47 4 5-7 5-3h10l6 3 5 5 1 3v10l-6 9-6 3h-8l-7-3-6-7-1-2-35-3-12-2-6-3-3-2-2 1-2-6-2-4-5-1-2-2 1-9 4-2 1-9v-7l16-32-2-5-2-4v-10l3-6 6-4z" fill="#A5A5A5"/>
<path transform="translate(692,252)" d="m0 0h8l8 7 14 14 15 20 6 9v3l1-2 9 1 9 6 3 5v8l-4 8-8 5h-9l-5-3-6-10v-7l3-4 1-5-3-1-16-24-11-15-6-7-7-1-7 6-8 12-14 20-5 9v8l1 5-2 8-6 7-4 2h-9l-6-4-4-5-1-3v-8l5-9 5-3h11l7-11 16-21 9-10z" fill="#A5A5A5"/>
<path transform="translate(1128,668)" d="m0 0h18l10 3 8 7 3 4 3 10-1 14-6 12-8 6-5 2-9 1h-12l-1-1z" fill="#242424"/>
<path transform="translate(767,662)" d="m0 0h8l4 8 11 28 12 32-1 3-6-2-4-8-3-7-37 1-4 13-2 2h-7l2-6 8-20 6-17 8-20 3-6z" fill="#A5A5A5"/>
<path transform="translate(950,661)" d="m0 0 6 2 6 12 13 34 8 21v2l-7-1-2-2-4-12-37-1-5 12-2 4h-6l1-6 8-20 9-25 8-17z" fill="#A5A5A5"/>
<path transform="translate(190,661)" d="m0 0 5 2 9 19 12 31 6 15 1 4h-6l-3-2-4-12-1-1-37-1-5 15-2 1h-6l1-5 13-34 10-24 4-7z" fill="#A5A5A5"/>
<path transform="translate(328,661)" d="m0 0 5 1 4 8 7 23 8 28 1 2 3-8 7-24 10-27 2-2 5 1 6 16 12 36 3 8 3-9 7-26 6-19 2-6 1-1h5l1 3-6 19-8 28-6 18-6 2-5-3-18-54-4 11-12 36-4 8-1 1h-7l-3-5-8-25-10-36z" fill="#A5A5A5"/>
<path transform="translate(64,662)" d="m0 0h7l5 8 12 27 11 27 3-8 8-22 12-26 3-5 1-1h6l1 1 1 25v44h-7v-58l-7 14-17 42-2 2h-5l-3-5-20-48-3-6v59h-7v-69z" fill="#A4A4A4"/>
<path transform="translate(743,475)" d="m0 0 8 1 6 5 3 4 37-2 17-2h5l1 4-8 6-10 3-9 1-27 1-5 3-5 6-8 4h-9l-6-4-5-10 1-9 4-6 6-4z" fill="#A4A4A4"/>
<path transform="translate(593,386)" d="m0 0h8l6 3 5 6 1 2v10l-4 6-6 5-6 2h-4l-3 9-15 31-4 10v5l3 4-1 2-3-1v-2l-5-1-2-2 1-9 4-2 1-9v-7l16-32-2-5-2-4v-10l3-6 6-4z" fill="#A4A4A4"/>
<path transform="translate(1009,662)" d="m0 0 8 1 5 5 10 15 14 23 11 18v-61l5-1 3 1v68l-1 1h-7l-6-4-17-29-8-13-10-15-1 61h-6l-1-5v-64z" fill="#A5A5A5"/>
<path transform="translate(794,386)" d="m0 0 10 1 7 6 2 4v9l-5 10 8 13 9 17 4 12-2 4 1 12-4 2-3-12-12-25-8-16v-4h-9l-6-4-5-7v-10l4-7 5-4z" fill="#A5A5A5"/>
<path transform="translate(857,662)" d="m0 0 13 1 10 4 8 7 1 4-5-1-14-7-3-1h-13l-8 4-5 5-5 8-1 4v16l5 10 8 7 12 3 10-1 10-6 7-7 2-7-26-1-1-4 7-2h17l8 1 1 1v31l-1 1-7-1-1-2 3-10-10 9-6 3-6 1h-8l-10-2-9-5-8-9-4-9-1-5v-10l4-11 6-8 7-6 5-3z" fill="#A4A4A4"/>
<path transform="translate(1126,662)" d="m0 0h13l15 2 8 4 5 4 7 11 2 7v14l-4 11-7 9-7 5-6 2-9 1h-21l-1-1v-68zm2 6v58l1 1h12l12-2 9-6 6-10 2-10v-7l-3-10-7-8-6-4-8-2z" fill="#A5A5A5"/>
<path transform="translate(453,662)" d="m0 0h46l1 1v5h-40v26l30 1 1 4-1 1h-29l-2-1v27h40l2 2-1 4h-47l-1-1v-68z" fill="#A5A5A5"/>
<path transform="translate(667,662)" d="m0 0h47l1 1v5h-41v27l30-1 1 1v5l-1 1-30-1v26h41v6h-47l-1-1-1-68z" fill="#A5A5A5"/>
<path transform="translate(1201,662)" d="m0 0h45l3 2-1 4h-41l1 3v24h31v4l-1 1h-29l-2-1 1 3-1 24h41l1 1v5h-47l-1-1z" fill="#A5A5A5"/>
<path transform="translate(297,661)" d="m0 0 4 1-2 6-12 19-6 9 2 4 7 11 13 18 2 4-7-1-5-5-9-12-7-10v-2l-5 5-12 18-4 5-5 2h-3l1-4 8-10 8-12 6-8-2-6-14-22-4-6v-3h5l7 8 10 15 3 5 3-4 10-16 6-8z" fill="#A5A5A5"/>
<path transform="translate(1329,661)" d="m0 0 2 1-3 10-10 29-10 27-3 4h-6l-4-5-10-28-11-33v-4l6 1 4 8 10 30 7 23 2 1 3-12 15-42 4-9z" fill="#A5A5A5"/>
<path transform="translate(951,670)" d="m0 0 3 2 9 25 4 11v3h-12l-20-1 3-11 8-20 4-8z" fill="#242424"/>
<path transform="translate(769,671)" d="m0 0h3l6 14 8 24v2h-29l-3-1 3-10 11-28z" fill="#242424"/>
<path transform="translate(190,670)" d="m0 0 4 4 6 16 7 21h-29l-3-1 1-6 11-29z" fill="#242424"/>
<path transform="translate(595,662)" d="m0 0 8 1v63h40l1 5-1 1h-47z" fill="#A5A5A5"/>
<path transform="translate(523,663)" d="m0 0h8l1 3-1 60 41 1-1 5h-46l-1-1z" fill="#A5A5A5"/>
<path transform="translate(555,315)" d="m0 0h6l6 4v7l-7 9-1 3h-2l-2-4-6-4-2-2v-6l5-5z" fill="#242424"/>
<path transform="translate(835,314)" d="m0 0 7 1 3 3 1 8-4 6-3 3h-5l-5-6-3-6 1-4z" fill="#242424"/>
<path transform="translate(746,311)" d="m0 0h7l4 2 1 2v8l-3 5-7 1-5-3-3-7 1-5z" fill="#242424"/>
<path transform="translate(641,311)" d="m0 0 8 1 4 3v8l-5 5-5 1-5-3-2-3v-8z" fill="#242424"/>
<path transform="translate(795,393)" d="m0 0 7 1 4 4 1 4-3 5-4 3h-6l-5-6-1-5 5-5z" fill="#242424"/>
<path transform="translate(593,394)" d="m0 0h8l5 4-1 7-6 5h-5l-5-5-2-3 1-5z" fill="#242424"/>
<path transform="translate(682,562)" d="m0 0 5 1 3-1v11l5 5v-1l9-2 5-6 1-3 3-1 1 5-7 8-5 3h-11l-7-5-3-6v-6z" fill="#A5A5A5"/>
<path transform="translate(647,485)" d="m0 0 6 1 3 3 1 5-3 5-2 2-5-1-4-4v-8z" fill="#242424"/>
<path transform="translate(848,477)" d="m0 0 3 3 1 7-3 6-6 5-4 2h-10l-2-2h5l1-3 6-2 5-5 2-5v-4h2z" fill="#A5A5A5"/>
<path transform="translate(743,486)" d="m0 0h6l3 3-1 7-4 5-7-2-2-4 1-7z" fill="#242424"/>
<path transform="translate(695,398)" d="m0 0 6 1 3 3-2 9-5 1-6-4-1-6 2-3z" fill="#242424"/>
<path transform="translate(1090,725)" d="m0 0h6l2 2-1 4-5 1-4-2 1-4z" fill="#A5A5A5"/>
</svg>
